<?xml version="1.0" standalone="no"?>
<!DOCTYPE svg PUBLIC "-//W3C//DTD SVG 20010904//EN"
 "http://www.w3.org/TR/2001/REC-SVG-20010904/DTD/svg10.dtd">
<svg version="1.0" xmlns="http://www.w3.org/2000/svg"
 width="1076.000000pt" height="1280.000000pt" viewBox="0 0 1076.000000 1280.000000"
 preserveAspectRatio="xMidYMid meet">
<g transform="translate(0.000000,1280.000000) scale(0.100000,-0.100000)"
fill="#000000" stroke="none">
<path d="M5685 12789 c-38 -4 -126 -13 -195 -19 -1233 -112 -2457 -747 -3313
-1720 -417 -474 -724 -1021 -882 -1571 -76 -261 -144 -706 -229 -1494 l-14
-130 -270 -680 c-849 -2139 -782 -1964 -782 -2021 0 -32 32 -140 56 -186 35
-68 123 -143 206 -176 37 -14 98 -17 413 -22 l370 -5 6 -775 c6 -810 7 -824
53 -1025 49 -211 163 -467 287 -645 310 -442 767 -725 1301 -804 84 -13 198
-16 560 -16 340 0 457 -3 466 -12 9 -9 12 -189 12 -750 l0 -738 2580 0 2580 0
0 2049 c0 1127 3 2057 6 2065 4 9 63 65 133 124 929 788 1532 1892 1680 3077
60 477 62 655 15 1125 -150 1495 -991 2833 -2284 3635 -178 110 -539 293 -720
364 -328 130 -669 226 -991 281 -159 26 -264 39 -600 69 -130 12 -339 12 -444
0z m2194 -1271 c5 -13 34 -171 66 -353 31 -181 59 -339 61 -351 4 -15 21 -26
62 -38 31 -10 112 -44 179 -77 l123 -60 267 189 c148 104 281 197 296 207 l29
18 254 -254 c140 -140 254 -257 254 -260 0 -4 -94 -141 -210 -305 -115 -164
-210 -305 -210 -312 0 -8 18 -53 39 -101 21 -47 51 -125 66 -173 l27 -87 52
-10 c28 -6 186 -33 351 -61 164 -28 303 -54 307 -56 10 -6 11 -721 1 -727 -5
-3 -170 -33 -368 -67 -198 -34 -363 -65 -366 -68 -3 -4 -16 -36 -29 -72 -12
-36 -47 -114 -77 -173 -30 -61 -50 -113 -46 -120 4 -7 94 -136 201 -287 107
-151 197 -281 200 -288 6 -17 -486 -512 -508 -512 -9 0 -150 95 -314 210
l-298 211 -131 -55 c-73 -30 -154 -60 -180 -67 -33 -8 -51 -19 -57 -33 -7 -17
-110 -607 -110 -630 0 -3 50 -6 110 -6 105 0 111 -1 120 -22 8 -20 60 -303 60
-328 0 -5 19 -14 43 -21 23 -6 79 -29 124 -51 l81 -40 130 91 c72 50 136 93
144 96 8 3 61 -43 132 -114 l119 -119 -102 -145 c-55 -80 -101 -150 -101 -155
0 -5 15 -42 34 -83 19 -41 39 -93 45 -116 9 -31 18 -44 34 -48 12 -2 87 -16
166 -29 84 -14 147 -30 152 -38 14 -22 11 -302 -3 -321 -9 -11 -59 -24 -173
-43 -88 -15 -165 -31 -171 -36 -7 -5 -15 -23 -18 -41 -4 -18 -24 -68 -46 -112
-22 -44 -40 -84 -40 -89 0 -5 41 -66 90 -137 50 -70 90 -133 90 -141 0 -21
-226 -242 -242 -236 -7 3 -75 49 -150 102 l-137 97 -58 -29 c-32 -16 -83 -37
-113 -47 -30 -9 -60 -22 -66 -29 -7 -6 -24 -81 -39 -166 -14 -85 -29 -158 -31
-162 -3 -5 -79 -8 -170 -8 -195 0 -173 -19 -204 180 -29 189 -24 175 -72 189
-24 7 -80 30 -124 52 l-82 40 -135 -96 c-74 -52 -138 -95 -143 -95 -15 0 -234
224 -234 239 0 7 43 74 95 148 52 74 95 141 95 149 0 8 -11 36 -24 62 -13 26
-33 77 -45 114 -20 62 -25 68 -54 73 -18 3 -92 16 -166 29 -79 14 -137 29
-142 37 -5 8 -9 80 -9 161 0 168 2 173 78 184 26 4 100 16 166 28 l118 21 28
76 c15 42 39 97 54 121 l26 45 -95 136 c-52 75 -95 142 -95 149 0 14 219 238
233 238 5 0 70 -43 144 -96 75 -53 141 -98 148 -101 7 -2 37 8 66 23 30 15 83
37 119 49 l65 22 22 114 c11 63 22 124 22 137 l1 22 -293 0 c-219 0 -297 3
-309 13 -11 9 -33 111 -77 367 -34 195 -61 358 -61 361 0 4 -35 19 -77 34 -43
15 -122 49 -175 76 -54 27 -102 49 -108 49 -6 0 -138 -90 -294 -200 -156 -110
-290 -200 -297 -200 -17 0 -509 490 -509 507 0 7 92 143 205 303 114 160 208
297 211 304 3 7 -11 46 -30 86 -20 40 -51 121 -71 180 l-35 106 -338 58 c-185
31 -345 59 -354 62 -17 5 -18 27 -18 282 0 152 -4 283 -9 290 -6 10 -40 8
-171 -15 -153 -26 -163 -29 -173 -53 -5 -14 -27 -63 -48 -108 -22 -46 -39 -87
-39 -91 0 -4 58 -90 130 -192 71 -101 130 -191 130 -199 0 -21 -311 -330 -333
-330 -9 0 -104 61 -209 136 -114 80 -198 133 -208 130 -8 -2 -53 -20 -99 -40
-46 -19 -91 -36 -100 -39 -14 -3 -25 -49 -55 -228 -27 -158 -43 -228 -54 -236
-18 -15 -438 -19 -460 -5 -7 5 -30 106 -55 246 l-42 238 -70 27 c-38 15 -88
38 -111 51 l-41 24 -184 -130 c-101 -72 -190 -134 -197 -138 -20 -12 -345 312
-339 339 2 11 64 105 137 209 l133 189 -18 46 c-10 25 -28 74 -40 109 -13 35
-25 66 -28 69 -4 3 -106 23 -227 44 -121 21 -225 41 -230 44 -13 8 -14 472 -1
479 5 3 111 24 237 46 226 39 254 49 254 84 0 6 18 49 41 97 l41 86 -131 185
c-72 102 -131 192 -131 199 0 14 319 339 332 339 4 0 97 -63 207 -140 l200
-141 48 24 c26 13 73 32 103 42 30 9 60 22 66 29 7 6 26 97 44 201 17 105 36
207 41 228 l10 37 235 0 c234 0 235 0 243 -22 4 -13 25 -120 45 -238 21 -118
42 -220 48 -227 6 -7 18 -13 27 -13 9 0 52 -18 96 -40 44 -22 85 -40 91 -40 6
0 92 57 190 126 98 70 185 129 192 132 16 6 342 -315 342 -336 0 -7 -61 -99
-136 -204 -100 -140 -134 -197 -131 -212 7 -27 77 -199 86 -208 3 -4 101 -23
216 -43 116 -20 218 -38 228 -41 15 -5 17 -22 17 -170 0 -147 2 -164 17 -164
44 0 569 94 579 104 7 6 21 40 33 76 11 36 45 113 75 171 l54 107 -209 292
c-159 224 -206 297 -199 309 13 24 495 501 505 501 6 0 146 -97 313 -214 l303
-214 72 33 c39 18 121 50 180 71 82 28 110 42 116 58 4 12 32 167 61 346 29
179 58 331 63 338 7 9 92 12 363 12 l354 0 9 -22z m-5463 -3566 c345 -121 481
-523 278 -827 -94 -142 -285 -245 -454 -245 -71 0 -179 27 -250 62 -135 65
-258 226 -289 376 -38 183 18 371 149 502 111 111 226 158 390 159 79 1 108
-4 176 -27z"/>
<path d="M3466 10199 c-166 -39 -326 -201 -365 -369 -13 -58 -13 -182 0 -240
37 -163 164 -299 332 -358 63 -21 83 -24 176 -20 78 4 121 11 163 27 124 48
241 165 289 289 33 86 38 238 10 330 -50 165 -196 303 -361 341 -54 13 -190
12 -244 0z"/>
<path d="M7370 9650 c-268 -47 -452 -301 -412 -569 42 -275 304 -468 575 -423
248 42 422 249 420 502 -1 146 -53 261 -163 364 -115 106 -269 152 -420 126z"/>
<path d="M7726 5954 c-258 -62 -426 -326 -372 -584 23 -109 59 -175 140 -256
83 -82 148 -118 262 -141 332 -68 640 231 585 568 -46 293 -329 482 -615 413z"/>
</g>
</svg>
